<svg xmlns="http://www.w3.org/2000/svg" width="2405" height="1057" viewBox="0 0 2405 1057" version="1.1"><path d="" stroke="none" fill="#080404" fill-rule="evenodd"/><path d="M 291.937 254.733 C 282.906 259.400, 279.618 269.158, 283.900 278.587 C 285.275 281.614, 289.221 285.535, 299.128 293.714 C 326.204 316.069, 352.382 346.084, 365.708 370.053 C 375.178 387.088, 384.386 412.560, 389.548 436 C 393.225 452.700, 396.397 451.441, 398.577 432.416 C 401.248 409.096, 397.544 387.502, 386.351 361.143 C 375.997 336.761, 362.914 316.346, 340.118 289 C 328.146 274.638, 309.318 255.428, 306 254.188 C 299.580 251.791, 297.474 251.872, 291.937 254.733 M 190.405 268.842 C 183.406 272.126, 179.534 281.029, 181.938 288.311 C 183.447 292.885, 190.419 299.269, 196.059 301.243 C 198.501 302.098, 208.480 305.354, 218.232 308.479 C 255.699 320.484, 290.666 342.035, 316.132 368.819 C 321.317 374.271, 330.667 385.430, 336.911 393.616 C 354.164 416.236, 358.343 419.964, 360.965 415.066 C 364.132 409.148, 360.810 395.302, 352.912 381.500 C 340.033 358.992, 320.380 335.943, 300.041 319.494 C 275.071 299.298, 254.986 287.762, 221.752 274.526 C 202.609 266.902, 196.788 265.847, 190.405 268.842 M 384.500 268.496 C 376.266 271.396, 372.500 279.990, 374.902 290.397 C 375.549 293.197, 380.507 303.816, 385.921 313.994 C 401.048 342.435, 408.993 364.609, 414.049 392.500 C 417.988 414.234, 419.092 449.936, 416.490 471.500 C 414.714 486.217, 414.718 486.001, 416.250 485.997 C 418.137 485.992, 426.472 470.554, 429.420 461.604 C 440.550 427.820, 440.732 383.450, 429.917 340.500 C 425.091 321.332, 418.182 301.754, 411.397 288.019 C 404.052 273.148, 401.225 269.435, 396.186 268.035 C 391.399 266.705, 389.357 266.786, 384.500 268.496 M 117.197 321.559 C 114.281 322.344, 110.800 323.777, 109.462 324.743 C 106.393 326.960, 103 333.712, 103 337.604 C 103 341.980, 107.010 349.158, 110.898 351.742 C 113.935 353.760, 115.475 353.992, 125.398 353.929 C 131.504 353.890, 140.100 353.507, 144.500 353.078 C 152.175 352.331, 160.807 352.785, 182.500 355.079 C 219.311 358.972, 256.193 371.835, 285.366 390.956 C 303.412 402.783, 307.154 404.027, 312.365 399.927 C 317.788 395.662, 315.591 390.645, 303.093 378.751 C 278.368 355.222, 237.435 335.650, 194 326.588 C 164.840 320.505, 129.670 318.202, 117.197 321.559 M 460.299 323.903 C 458.538 325.007, 456.343 327.370, 455.421 329.153 C 453.608 332.659, 453.698 337.502, 456.014 361.127 C 456.707 368.186, 457.002 384.881, 456.766 403.627 C 456.400 432.816, 456.227 435.208, 453.597 447.483 C 448.920 469.319, 443.750 483.338, 431.328 507.879 C 420.434 529.401, 419.079 533.001, 420.830 535.759 C 423.081 539.304, 444.205 518.962, 454.081 503.740 C 470.989 477.679, 482.766 443.755, 487.487 407.511 C 488.481 399.887, 489.047 387.782, 489.043 374.259 C 489.035 344.236, 486.911 332.213, 480.517 326.017 C 477.283 322.882, 476.332 322.532, 470.227 322.228 C 464.825 321.959, 462.869 322.289, 460.299 323.903 M 158.500 373.734 C 125.339 376.325, 101.077 381.487, 72.019 392.133 C 50.317 400.085, 43 406.228, 43 416.500 C 43 423.104, 45.875 427.671, 51.970 430.750 C 58.913 434.257, 63.835 433.760, 75.500 428.370 C 117.577 408.930, 137.942 402.767, 169.500 399.923 C 190.178 398.059, 208.467 399.302, 238.058 404.583 C 250.113 406.734, 253.316 406.992, 256.691 406.083 C 258.933 405.480, 261.326 404.312, 262.009 403.490 C 263.659 401.500, 263.587 397.157, 261.875 395.455 C 259.965 393.558, 232.873 382.275, 226.077 380.547 C 212.263 377.034, 195.654 374.779, 179 374.155 C 169.375 373.795, 160.150 373.605, 158.500 373.734 M 521.030 399.529 C 513.651 402.845, 511.887 405.835, 509.026 419.871 C 502.278 452.983, 488.904 487.525, 474.777 508.329 C 460.582 529.232, 437.432 553.664, 417.707 568.560 C 405.695 577.631, 404 579.383, 404 582.731 C 404 585.171, 404.159 585.228, 409.750 584.795 C 430.146 583.215, 468.580 555.586, 492.934 524.997 C 512.865 499.964, 531.121 463.866, 538.958 433.993 C 542.749 419.543, 543.588 412.312, 542.023 407.569 C 539.671 400.444, 528.509 396.169, 521.030 399.529 M 726 400.455 C 687.066 406.889, 653.159 432.122, 635.518 467.789 C 626.418 486.187, 623.506 499.372, 623.545 522 C 623.572 537.531, 623.872 540.686, 626.217 550.037 C 645.206 625.774, 727.633 665.185, 797.500 631.933 C 814.933 623.636, 831.467 610.145, 843.066 594.752 C 851.080 584.117, 860.311 565.134, 863.614 552.500 C 867.073 539.269, 868.050 514.284, 865.650 500.484 C 857.300 452.495, 819.444 412.613, 772.064 401.894 C 760.546 399.288, 737.431 398.566, 726 400.455 M 1969 400.457 C 1917.274 408.991, 1875.800 450.122, 1867.535 501.084 C 1861.156 540.416, 1873.424 579.308, 1900.958 607.037 C 1918.981 625.188, 1942.491 637.675, 1967 642.114 C 1977.731 644.057, 2001.471 643.787, 2011.796 641.604 C 2055.048 632.458, 2090.141 601.524, 2103.919 560.400 C 2112.137 535.871, 2112.126 507.097, 2103.888 482.504 C 2090.232 441.739, 2055.184 410.560, 2012.725 401.404 C 2002.564 399.213, 1979.561 398.715, 1969 400.457 M 891 447.015 L 891 485.030 984.935 484.765 L 1078.869 484.500 1081.957 481.542 C 1088.368 475.399, 1087.968 465.907, 1081.102 461.287 L 1077.704 459 997.352 459 L 917 459 917 446.972 L 917 434.945 1000.250 435.222 L 1083.500 435.500 1089.175 438.160 C 1097.121 441.885, 1103.397 448.030, 1107.250 455.856 C 1110.189 461.825, 1110.500 463.322, 1110.500 471.479 C 1110.500 484.999, 1105.783 494.484, 1095.588 501.463 C 1084.956 508.740, 1092.227 508.302, 986.250 508.047 L 891 507.817 891 570.909 L 891 634 928.500 634 L 966 634 966 609 L 966 584 993.839 584 L 1021.677 584 1036.089 608.968 L 1050.500 633.937 1094.336 633.968 L 1138.172 634 1134.410 627.250 C 1132.341 623.538, 1126.540 613.525, 1121.520 605 C 1116.499 596.475, 1108.366 582.424, 1103.446 573.776 L 1094.500 558.052 1079.750 558.026 C 1071.638 558.012, 1065.020 558.337, 1065.043 558.750 C 1065.067 559.163, 1071.295 570.300, 1078.882 583.500 L 1092.677 607.500 1080.142 607.781 C 1073.247 607.936, 1067.070 607.857, 1066.415 607.606 C 1065.760 607.354, 1058.797 596.090, 1050.942 582.574 L 1036.659 558 988.830 558 L 941 558 941 583 L 941 608 929 608 L 917 608 917 570.907 L 917 533.814 1000.250 534.074 C 1076.918 534.312, 1084.014 534.194, 1090 532.581 C 1112.138 526.616, 1130.311 507.838, 1135.565 485.500 C 1137.704 476.407, 1137.025 460.964, 1134.124 452.725 C 1128.235 436.001, 1117.355 423.231, 1102.942 416.126 C 1088.109 408.814, 1091.789 409.037, 985.750 409.017 L 891 409 891 447.015 M 1181 447 L 1181 485 1273.250 484.998 C 1359.100 484.997, 1365.738 484.876, 1368.929 483.248 C 1373.972 480.677, 1376.331 476.923, 1376.250 471.598 C 1376.175 466.619, 1374.530 463.648, 1370.305 460.863 C 1367.635 459.102, 1363.640 459.013, 1287.250 459.007 L 1207 459 1207 446.978 L 1207 434.955 1289.750 435.228 L 1372.500 435.500 1379.159 438.655 C 1401.660 449.315, 1407.453 477.571, 1390.977 496.289 C 1387.180 500.603, 1378.292 506.011, 1372.500 507.534 C 1370.850 507.967, 1327.088 508.205, 1275.250 508.062 L 1181 507.803 1181 570.901 L 1181 634 1219 634 L 1257 634 1257 596 L 1257 558 1244 558 L 1231 558 1231 583 L 1231 608 1219 608 L 1207 608 1207 570.907 L 1207 533.814 1290.250 534.066 C 1379.969 534.338, 1377.393 534.469, 1389.500 528.999 C 1405.775 521.646, 1417.547 508.333, 1423.545 490.500 C 1426.888 480.561, 1427.311 466.273, 1424.566 456 C 1418.650 433.853, 1399.222 415.120, 1377.371 410.490 C 1371.636 409.275, 1354.829 409.032, 1275.750 409.017 L 1181 409 1181 447 M 1457.241 459.250 L 1457.500 509.500 1470.250 509.780 L 1483 510.060 1483 472.530 L 1483 435 1495 435 L 1507 435 1507 472.500 L 1507 510 1580 510 L 1653 510 1653 472.500 L 1653 435 1665 435 L 1677 435 1677 521.500 L 1677 608 1665 608 L 1653 608 1653 570.495 L 1653 532.990 1555.250 533.245 L 1457.500 533.500 1457.241 583.750 L 1456.982 634 1494.991 634 L 1533 634 1533 608.500 L 1533 583 1520 583 L 1507 583 1507 595.500 L 1507 608 1495 608 L 1483 608 1483 583.500 L 1483 559 1555 559 L 1627 559 1627 596.500 L 1627 634 1665 634 L 1703 634 1703 521.500 L 1703 409 1665 409 L 1627 409 1627 446.500 L 1627 484 1580 484 L 1533 484 1533 446.500 L 1533 409 1494.991 409 L 1456.982 409 1457.241 459.250 M 1746 521.500 L 1746 634 1784 634 L 1822 634 1822 621 L 1822 608 1797 608 L 1772 608 1772 521.500 L 1772 435 1784 435 L 1796 435 1796 509.500 L 1796 584 1809 584 L 1822 584 1822 496.500 L 1822 409 1784 409 L 1746 409 1746 521.500 M 2134 521.500 L 2134 634 2172 634 L 2210 634 2210 597.913 L 2210 561.827 2197.250 547.193 L 2184.500 532.559 2184.238 570.280 L 2183.976 608 2171.988 608 L 2160 608 2160 521.500 L 2160 435 2178.750 435.001 L 2197.500 435.003 2263 510.673 L 2328.500 586.342 2328.756 510.671 L 2329.013 435 2341.006 435 L 2353 435 2353 521.500 L 2353 608 2334.250 607.929 L 2315.500 607.858 2250 531.798 L 2184.500 455.738 2184.229 475.442 L 2183.957 495.146 2200.229 513.997 C 2209.178 524.366, 2236.075 555.575, 2260 583.353 L 2303.500 633.857 2341.250 633.928 L 2379 634 2379 521.500 L 2379 409 2341 409 L 2303 409 2303 463.044 L 2303 517.087 2256.250 463.053 L 2209.500 409.018 2171.750 409.009 L 2134 409 2134 521.500 M 182.500 415.723 C 165.611 417.725, 139.849 424.226, 125 430.233 C 87.575 445.371, 70.303 456.175, 39.813 483.518 C 30.083 492.244, 27.590 495.088, 24.927 500.498 C 20.953 508.568, 20.804 513.283, 24.330 519.299 C 27.301 524.369, 31.884 527.011, 37.651 526.978 C 44.562 526.939, 48.977 523.992, 58.004 513.394 C 93.885 471.268, 135.331 446.715, 192.008 434.009 C 211.730 429.587, 216 427.217, 216 420.688 C 216 417.477, 214.578 416.461, 208.201 415.117 C 201.841 413.777, 198.192 413.863, 182.500 415.723 M 726 426.522 C 692.782 433.338, 664.957 457.808, 653.819 490 C 640.337 528.964, 653.693 573.535, 686.189 598.022 C 695.789 605.256, 709.587 612.150, 720.500 615.165 C 727.295 617.042, 731.060 617.377, 745.500 617.385 C 761.241 617.394, 763.166 617.190, 771.500 614.631 C 812.118 602.162, 838.973 568.592, 841.663 526.924 C 844.691 480.017, 811.062 436.122, 764.792 426.588 C 755.420 424.657, 735.255 424.623, 726 426.522 M 1969 426.522 C 1931.375 434.243, 1901.966 463.410, 1893.403 501.500 C 1890.629 513.837, 1891.032 532.694, 1894.338 545.297 C 1903.825 581.456, 1932.395 608.656, 1968.798 616.186 C 1982.596 619.040, 2001.747 618.355, 2014.500 614.551 C 2082.337 594.318, 2106.963 513.005, 2061.632 458.923 C 2047.879 442.514, 2028.380 430.800, 2007.792 426.580 C 1998.415 424.658, 1978.231 424.627, 1969 426.522 M 290.821 427.750 C 290.003 428.712, 287.629 435.350, 285.547 442.500 C 277.894 468.780, 268.672 482.710, 251 494.687 C 240.112 502.066, 229.551 506.296, 212.749 510.010 C 205.477 511.617, 202.617 512.709, 201.499 514.305 C 199.627 516.977, 199.570 520.398, 201.373 521.895 C 202.128 522.522, 210.057 525.056, 218.991 527.528 C 237.839 532.741, 247.433 537.327, 257.182 545.780 C 264.203 551.869, 272.541 561.667, 276.630 568.636 C 279.913 574.232, 284.241 586.490, 286.997 598 C 289.441 608.208, 291.053 611, 294.500 611 C 298.129 611, 299.807 607.959, 303.030 595.547 C 309.370 571.130, 317.831 556.721, 332.828 544.803 C 344.993 535.136, 356.736 530.039, 379.979 524.335 C 386.460 522.745, 387.586 522.138, 388.408 519.790 C 389.045 517.973, 388.989 516.270, 388.237 514.622 C 387.304 512.573, 385.813 511.888, 379.308 510.521 C 354.461 505.298, 340.233 498.270, 326.303 484.340 C 314.773 472.810, 308.707 461.524, 303.058 441.096 C 301.324 434.823, 299.461 428.861, 298.917 427.846 C 297.649 425.475, 292.805 425.418, 290.821 427.750 M 734.536 449.050 C 706.468 453.432, 683.589 473.737, 674.870 502 C 672.140 510.852, 671.627 528.870, 673.846 538 C 676.135 547.418, 684.236 562.859, 690.517 569.776 C 728.480 611.585, 795.309 598.232, 814.689 544.964 C 817.213 538.027, 817.407 536.370, 817.432 521.500 C 817.459 505.973, 817.367 505.260, 814.352 497.392 C 805.281 473.731, 786.571 456.449, 763.648 450.560 C 756.020 448.600, 742.057 447.876, 734.536 449.050 M 1975.500 449.432 C 1945.455 455.366, 1922.688 477.696, 1916.592 507.210 C 1908.689 545.469, 1933.302 583.568, 1971.770 592.622 C 1980.788 594.744, 1996.629 594.694, 2005.500 592.516 C 2051.145 581.305, 2074.663 529.710, 2053.045 488.213 C 2043.310 469.527, 2025.914 455.418, 2006.568 450.517 C 1997.809 448.299, 1983.729 447.807, 1975.500 449.432 M 174.500 453.895 C 163.259 457.179, 137.651 471.314, 123.301 482.155 C 113.962 489.211, 90.946 512.223, 80.780 524.668 C 71.051 536.579, 62.186 550.911, 52.103 571.031 C 38.986 597.203, 36 605.097, 36 613.600 C 36 621.926, 38.249 625.974, 44.576 629.037 C 50.300 631.808, 56.173 631.106, 61.882 626.971 C 66.726 623.462, 67.994 621.165, 72.010 608.626 C 81.733 578.275, 100.138 544.267, 119.164 521.500 C 130.665 507.736, 146.917 492.664, 164.015 479.905 C 184.696 464.471, 187 462.236, 187 457.607 C 187 454.602, 186.543 453.777, 184.435 452.975 C 181.329 451.795, 181.859 451.745, 174.500 453.895 M 732 475.886 C 723.197 478.732, 717.982 481.858, 711.912 487.928 C 689.484 510.356, 694.947 548.135, 722.809 563.300 C 745.326 575.555, 774.746 566.839, 786.725 544.365 C 794.689 529.422, 794.908 514.713, 787.390 499.733 C 779.343 483.700, 763.265 473.926, 745.145 474.054 C 740.692 474.085, 735.204 474.850, 732 475.886 M 1975.912 475.445 C 1962.621 479.111, 1951.439 488.686, 1945.208 501.734 C 1941.568 509.357, 1941.500 509.720, 1941.500 521.500 C 1941.500 533.292, 1941.565 533.636, 1945.228 541.308 C 1955.197 562.186, 1977.828 573.103, 1999.458 567.469 C 2023.491 561.209, 2039.270 537.506, 2035.066 513.979 C 2031.730 495.317, 2018.055 480.114, 2000.485 475.538 C 1993.494 473.717, 1982.327 473.675, 1975.912 475.445 M 546.430 490.326 C 541.224 492.317, 538.490 495.086, 529.972 507 C 520.807 519.819, 513.399 529.326, 505.076 538.946 C 496.604 548.740, 471.791 570.349, 460 578.201 C 443.670 589.077, 420.419 600.071, 400 606.570 C 374.548 614.672, 372.806 615.326, 371.621 617.222 C 369.903 619.972, 372.310 621.394, 379.780 622.044 C 395.307 623.395, 419.279 619.606, 440.935 612.376 C 488.026 596.657, 526.921 567.591, 557.222 525.476 C 565.713 513.675, 567 511.031, 567 505.388 C 567 493.863, 556.770 486.372, 546.430 490.326 M 160.500 502.159 C 153.171 506.368, 139.910 521.355, 128.933 537.835 C 111.205 564.451, 101.204 589.912, 92.338 631 C 90.298 640.454, 89.759 646.325, 89.304 664 C 88.715 686.887, 89.712 698.123, 92.796 703.373 C 98.669 713.370, 116.991 711.446, 121.629 700.345 C 122.784 697.580, 122.898 693.493, 122.245 678.227 C 120.788 644.150, 123.181 619.265, 130.476 592.667 C 136.312 571.387, 144.508 553.064, 160.515 525.518 C 168.833 511.203, 170.974 505.776, 169.335 503.157 C 168.072 501.139, 163.229 500.592, 160.500 502.159 M 165.471 552.160 C 159.211 557.656, 154.443 570.098, 148.584 596.220 C 141.835 626.310, 142.984 667.530, 151.513 701.279 C 156.301 720.227, 171.949 757.177, 177.764 763.266 C 184.545 770.368, 198.583 768.496, 204.062 759.759 C 205.696 757.154, 206.042 755.196, 205.785 750 C 205.505 744.346, 204.599 741.741, 198.831 730 C 171.064 673.477, 164.380 635.943, 171.940 579 C 175.750 550.298, 174.325 544.385, 165.471 552.160 M 531.260 586.432 C 529.478 587.236, 523.628 591.020, 518.260 594.839 C 499.056 608.503, 478.503 619.783, 461 626.266 C 447.891 631.122, 425.483 636.708, 413.500 638.107 C 399.169 639.781, 370.707 639.530, 357.245 637.612 C 351.055 636.730, 340.925 635.719, 334.733 635.365 C 324.865 634.802, 323.301 634.932, 322.066 636.421 C 319.218 639.852, 321.789 643.051, 331.513 648.174 C 361.792 664.125, 406.329 668.862, 447.500 660.510 C 485.522 652.797, 515.678 639.736, 546.134 617.789 C 553.714 612.327, 556 608.494, 556 601.247 C 556 595.798, 553.555 591.206, 548.763 587.657 C 545.234 585.042, 535.798 584.382, 531.260 586.432 M 189.433 592.073 C 187.648 594.046, 187.500 595.861, 187.500 615.854 C 187.500 636.926, 187.587 637.858, 190.788 650.988 C 197.849 679.948, 203.640 693.266, 219.721 717.528 C 235.031 740.626, 246.734 753.661, 275.096 779.201 C 286.450 789.426, 290.616 791.583, 297.280 790.689 C 310.043 788.977, 316.155 772.094, 307.838 761.522 C 306.653 760.015, 297.992 752.243, 288.592 744.251 C 237.005 700.391, 217.163 670.805, 199.464 611.354 C 196.377 600.984, 193.292 591.923, 192.609 591.219 C 191.603 590.182, 190.998 590.344, 189.433 592.073 M 223.986 625.027 C 223.145 626.598, 223.488 629.209, 225.512 636.637 C 228.868 648.958, 231.603 655.049, 238.599 665.788 C 255.256 691.356, 277.767 713.415, 306.220 732.052 C 321.777 742.242, 336.319 749.279, 360.500 758.320 C 384.954 767.463, 393.091 770, 397.956 770 C 410.360 770, 418.666 760.503, 415.893 749.490 C 414.153 742.578, 410.564 739.628, 400.795 737.079 C 385.880 733.188, 347.997 720.032, 335.509 714.406 C 305.534 700.903, 268.866 671.739, 246.987 644 C 232.922 626.169, 229.969 623, 227.414 623 C 226.084 623, 224.601 623.876, 223.986 625.027 M 271.200 640.200 C 268.157 643.243, 269.846 646.353, 279.871 656.160 C 315.887 691.392, 364.118 710.590, 424 713.529 C 438.616 714.246, 469.638 711.619, 485.500 708.321 C 492.478 706.870, 494.025 706.137, 497.605 702.579 C 504.075 696.151, 504.374 687.163, 498.355 680.010 C 492.500 673.052, 486.698 672.513, 464.906 676.901 C 440.701 681.774, 425.464 683.030, 403 682.002 C 392.275 681.511, 379.450 680.377, 374.500 679.481 C 363.350 677.464, 343.655 671.958, 335 668.438 C 326.192 664.856, 307.264 655.311, 297.500 649.528 C 280.451 639.428, 274.191 637.209, 271.200 640.200" stroke="none" fill="#040404" fill-rule="evenodd"/></svg>